<svg width="2527" height="1215" viewBox="0 0 2527 1215" fill="none" xmlns="http://www.w3.org/2000/svg">
<path d="M758.851 1214.03H455.612L304.441 1062.86H455.509H607.18H758.851H910.272V1214.03H758.851ZM910.272 152.331H455.509H304.441L455.612 1.16016H910.272V152.331Z" fill="white"/>
<path d="M758.851 1214.03H455.612L304.441 1062.86H455.509H607.18H758.851H910.272V1214.03H758.851ZM910.272 152.331H455.509H304.441L455.612 1.16016H910.272V152.331Z" fill="#00FFA3"/>
<path d="M758.851 1214.03H455.612L304.441 1062.86H455.509H607.18H758.851H910.272V1214.03H758.851ZM910.272 152.331H455.509H304.441L455.612 1.16016H910.272V152.331Z" stroke="#00FFA3" stroke-width="0.5"/>
<path d="M455.259 304.25V1062.36H304.088L304.088 304.25L304.088 152.829H455.259V304.25Z" fill="white"/>
<path d="M455.259 304.25V1062.36H304.088L304.088 304.25L304.088 152.829H455.259V304.25Z" fill="white"/>
<path d="M455.259 304.25V1062.36H304.088L304.088 304.25L304.088 152.829H455.259V304.25Z" stroke="#00FFA3" stroke-width="0.5"/>
<path d="M759.094 1062.36V599.871L910.265 451.506L910.265 1062.36H759.094Z" fill="white" stroke="white" stroke-width="0.5"/>
<path d="M1062.44 1214.03V304.252V152.581V1.51369L1213.61 152.685V1214.03H1062.44Z" fill="#00FFA3" stroke="white" stroke-width="0.5"/>
<path d="M0.75 1214.03V152.685L151.921 1.51371V152.581V1214.03H0.75Z" fill="#00FFA3" stroke="white" stroke-width="0.5"/>
<path d="M932.359 133.44L932.362 133.438L1061.95 1.52139V152.478L607.437 606.991V456.028L932.359 133.44Z" fill="white" stroke="white" stroke-width="0.5"/>
<path d="M152.431 1.51371L303.602 152.685L303.602 303.649L152.431 152.478V1.51371Z" fill="white" stroke="white" stroke-width="0.5"/>
<path d="M1584.47 368.156L1573.95 334.991C1542.67 357.64 1512.47 368.965 1483.35 368.965C1456.93 368.965 1433.88 364.246 1414.19 354.809C1394.51 345.102 1378.2 332.429 1365.25 316.79C1352.31 300.881 1342.6 282.951 1336.13 262.997C1329.93 242.775 1326.83 222.147 1326.83 201.116C1326.83 179.814 1330.47 159.052 1337.75 138.829C1345.3 118.337 1356.22 100.136 1370.51 84.2276C1385.07 68.319 1402.73 55.5112 1423.49 45.8042C1444.26 35.8277 1467.98 30.8394 1494.68 30.8394C1531.89 30.8394 1566.13 38.9285 1597.41 55.1067V132.762C1592.56 133.571 1588.24 133.976 1584.47 133.976C1580.42 133.976 1577.05 133.571 1574.36 132.762L1561.41 65.2182C1544.16 54.4327 1520.29 49.0399 1489.83 49.0399C1472.84 49.0399 1457.47 52.9496 1443.72 60.7691C1429.97 68.319 1418.1 78.7 1408.13 91.9123C1398.15 104.855 1390.46 120.224 1385.07 138.02C1379.68 155.547 1376.98 174.287 1376.98 194.24C1376.98 215.541 1379.41 235.225 1384.26 253.29C1389.39 271.356 1396.53 286.995 1405.7 300.207C1414.87 313.42 1425.92 323.801 1438.86 331.35C1452.08 338.631 1466.77 342.271 1482.95 342.271C1509.1 342.271 1534.85 335.125 1560.2 320.835V234.685L1527.44 230.641C1526.9 229.293 1526.63 227.136 1526.63 224.17C1526.63 222.821 1526.63 221.473 1526.63 220.125C1526.63 218.777 1526.9 217.294 1527.44 215.676C1534.99 216.215 1543.21 216.62 1552.11 216.889C1561.28 217.159 1571.53 217.294 1582.85 217.294C1602.53 217.294 1621.14 216.889 1638.67 216.08C1639.47 218.507 1639.88 220.934 1639.88 223.361C1639.88 225.787 1639.47 228.214 1638.67 230.641L1605.1 235.494C1604.56 240.617 1604.15 247.089 1603.88 254.908C1603.61 262.728 1603.48 272.03 1603.48 282.816V323.666L1599.43 368.156C1598.35 368.695 1597.28 368.965 1596.2 368.965C1595.12 368.965 1593.91 368.965 1592.56 368.965C1591.21 368.965 1589.86 368.965 1588.51 368.965C1587.16 368.965 1585.82 368.695 1584.47 368.156Z" fill="white"/>
<path d="M1734 144.896L1733.19 186.555C1739.93 174.152 1749.23 162.827 1761.1 152.581C1773.23 142.065 1784.69 136.807 1795.47 136.807C1803.83 136.807 1811.25 137.751 1817.72 139.638C1819.88 143.143 1820.96 147.727 1820.96 153.39C1820.96 162.288 1819.07 171.186 1815.29 180.084C1805.59 177.387 1796.28 176.039 1787.39 176.039C1765.27 176.039 1747.07 186.825 1732.78 208.396L1731.97 279.176V340.249L1776.87 346.315C1777.95 350.63 1777.95 356.022 1776.87 362.494C1759.88 361.685 1740.47 361.28 1718.63 361.28C1702.18 361.28 1682.63 361.55 1659.98 362.089C1658.36 356.966 1658.36 351.708 1659.98 346.315L1691.93 341.866C1693.01 327.036 1693.55 309.914 1693.55 290.5V179.679C1693.55 174.287 1693.15 169.298 1692.34 164.714L1660.39 160.67C1659.31 156.625 1659.31 151.502 1660.39 145.3C1678.99 143.952 1702.18 141.121 1729.95 136.807C1732.38 139.503 1733.73 142.2 1734 144.896Z" fill="white"/>
<path d="M1907.74 210.418V340.249L1940.5 346.315C1940.77 347.664 1940.9 348.877 1940.9 349.955C1941.17 351.034 1941.31 352.247 1941.31 353.596C1941.31 354.944 1941.17 356.427 1940.9 358.045C1940.9 359.393 1940.77 360.876 1940.5 362.494C1923.51 361.685 1906.12 361.28 1888.33 361.28C1882.12 361.28 1874.57 361.28 1865.68 361.28C1857.05 361.55 1847.07 361.82 1835.75 362.089C1834.94 359.662 1834.53 357.101 1834.53 354.404C1834.53 351.978 1834.94 349.281 1835.75 346.315L1867.7 341.866C1868.24 334.316 1868.64 326.362 1868.91 318.003C1869.18 309.375 1869.32 300.207 1869.32 290.5V204.351C1869.32 186.555 1868.91 173.343 1868.1 164.714L1836.15 160.67C1835.61 159.322 1835.34 157.03 1835.34 153.794C1835.34 152.446 1835.34 151.098 1835.34 149.75C1835.34 148.401 1835.61 146.918 1836.15 145.3C1854.49 144.222 1877.67 141.391 1905.72 136.807C1908.14 139.503 1909.49 142.2 1909.76 144.896C1908.41 152.446 1907.74 174.287 1907.74 210.418ZM1848.69 66.0271C1848.15 64.6789 1847.88 63.3307 1847.88 61.9825C1847.88 60.3647 1847.88 58.8817 1847.88 57.5335C1847.88 50.2533 1850.85 44.4561 1856.78 40.1419C1862.98 35.558 1870.53 33.2661 1879.43 33.2661C1887.79 33.2661 1894.53 35.8277 1899.65 40.9508C1905.04 45.8042 1907.74 52.5452 1907.74 61.1736C1907.74 68.1842 1904.64 73.8466 1898.44 78.1607C1892.5 82.475 1884.82 84.6321 1875.38 84.6321C1868.91 84.6321 1863.11 83.0142 1857.99 79.7786C1853.14 76.5429 1850.04 71.9591 1848.69 66.0271Z" fill="white"/>
<path d="M2161.56 303.443C2161.56 321.509 2161.97 334.182 2162.78 341.462L2194.73 345.506C2195.54 349.821 2195.54 354.944 2194.73 360.876C2175.05 361.685 2154.55 363.572 2133.25 366.538C2131.36 364.651 2130.02 362.089 2129.21 358.854L2127.19 332.968C2117.75 344.023 2106.02 352.921 2092 359.662C2077.98 366.134 2063.28 369.369 2047.91 369.369C2024.45 369.369 2005.04 359.662 1989.67 340.249C1974.3 320.565 1966.62 294.41 1966.62 261.784C1966.62 224.035 1976.59 193.835 1996.55 171.186C2016.77 148.267 2040.9 136.807 2068.94 136.807C2091.05 136.807 2109.12 142.065 2123.14 152.581V98.3836C2123.14 80.5875 2122.74 67.3753 2121.93 58.7468L2089.98 54.7023C2088.9 50.6577 2088.9 45.5346 2089.98 39.3329C2108.58 37.9848 2131.77 35.1536 2159.54 30.8394C2161.97 33.5357 2163.32 36.2321 2163.59 38.9285C2162.24 45.9391 2161.56 67.7797 2161.56 104.45V303.443ZM2065.71 158.648C2048.18 158.648 2034.16 167.95 2023.64 186.555C2013.13 204.89 2007.87 230.371 2007.87 262.997C2007.87 289.691 2012.72 310.049 2022.43 324.07C2032.41 338.091 2045.49 345.102 2061.66 345.102C2071.37 345.102 2082.02 342.136 2093.62 336.204C2105.21 330.002 2115.05 321.509 2123.14 310.723V181.297C2109.93 166.197 2090.78 158.648 2065.71 158.648Z" fill="white"/>
<path d="M1632.6 1103.86V871.3L1510.45 1181.92H1499.94L1382.24 881.411V1103.86C1382.24 1125.16 1382.78 1140.94 1383.86 1151.18L1421.47 1156.04C1423.09 1160.89 1423.09 1165.74 1421.47 1170.6C1398.28 1170.06 1381.84 1169.79 1372.13 1169.79C1355.95 1169.79 1339.64 1170.19 1323.19 1171C1322.11 1165.07 1322.11 1160.08 1323.19 1156.04L1359.99 1151.99V913.768C1359.99 892.466 1359.46 876.693 1358.38 866.446L1324.81 861.593C1323.19 857.009 1323.19 852.425 1324.81 847.841H1413.79L1515.31 1113.97L1619.25 847.841C1625.45 848.111 1634.89 848.246 1647.56 848.246C1650.26 848.246 1671.43 847.841 1711.06 847.032C1712.68 851.886 1712.68 856.739 1711.06 861.593L1677.49 866.446C1676.41 876.693 1675.88 892.466 1675.88 913.768V1151.99L1708.64 1156.04C1709.71 1160.08 1709.71 1165.07 1708.64 1171C1691.65 1170.19 1673.18 1169.79 1653.23 1169.79C1638.67 1169.79 1620.06 1170.06 1597.41 1170.6C1595.79 1163.86 1595.79 1159 1597.41 1156.04L1630.98 1151.18C1632.06 1140.94 1632.6 1125.16 1632.6 1103.86Z" fill="white"/>
<path d="M1908.95 1055.73H1781.95C1779.53 1124.49 1800.15 1158.87 1843.84 1158.87C1862.44 1158.87 1881.45 1150.64 1900.86 1134.2C1904.91 1136.62 1908.01 1140.8 1910.17 1146.73C1891.56 1167.5 1867.97 1177.88 1839.39 1177.88C1773.59 1177.88 1740.7 1139.18 1740.7 1061.8C1740.7 1025.13 1750.41 996.681 1769.82 976.458C1789.23 955.966 1811.88 945.72 1837.77 945.72C1866.08 945.72 1886.44 955.561 1898.84 975.245C1911.24 994.929 1917.45 1020.54 1917.45 1052.09C1914.75 1054.25 1911.92 1055.46 1908.95 1055.73ZM1836.96 961.898C1822.94 961.898 1810.94 969.178 1800.96 983.739C1791.26 998.299 1785.32 1016.9 1783.17 1039.55H1833.32C1853.27 1039.55 1867.56 1038.34 1876.19 1035.91C1876.19 1013.8 1872.82 996.007 1866.08 982.525C1859.34 968.774 1849.63 961.898 1836.96 961.898Z" fill="white"/>
<path d="M2147.74 1112.36C2147.74 1130.42 2148.14 1143.09 2148.95 1150.37L2180.91 1154.42C2181.71 1158.73 2181.71 1163.86 2180.91 1169.79C2161.22 1170.6 2140.73 1172.48 2119.43 1175.45C2117.54 1173.56 2116.19 1171 2115.38 1167.77L2113.36 1141.88C2103.92 1152.94 2092.19 1161.83 2078.17 1168.58C2064.15 1175.05 2049.46 1178.28 2034.09 1178.28C2010.63 1178.28 1991.22 1168.58 1975.85 1149.16C1960.48 1129.48 1952.79 1103.32 1952.79 1070.7C1952.79 1032.95 1962.77 1002.75 1982.72 980.099C2002.94 957.179 2027.08 945.72 2055.12 945.72C2077.23 945.72 2095.3 950.978 2109.32 961.494V907.296C2109.32 889.5 2108.91 876.288 2108.1 867.66L2076.15 863.615C2075.07 859.57 2075.07 854.447 2076.15 848.246C2094.76 846.898 2117.95 844.066 2145.72 839.752C2148.14 842.448 2149.49 845.145 2149.76 847.841C2148.41 854.852 2147.74 876.693 2147.74 913.363V1112.36ZM2051.88 967.56C2034.36 967.56 2020.34 976.863 2009.82 995.468C1999.3 1013.8 1994.05 1039.28 1994.05 1071.91C1994.05 1098.6 1998.9 1118.96 2008.61 1132.98C2018.58 1147 2031.66 1154.01 2047.84 1154.01C2057.55 1154.01 2068.2 1151.05 2079.79 1145.12C2091.39 1138.92 2101.23 1130.42 2109.32 1119.64V990.21C2096.1 975.11 2076.96 967.56 2051.88 967.56Z" fill="white"/>
<path d="M2271.91 1019.33V1149.16L2304.67 1155.23C2304.94 1156.58 2305.07 1157.79 2305.07 1158.87C2305.34 1159.95 2305.48 1161.16 2305.48 1162.51C2305.48 1163.86 2305.34 1165.34 2305.07 1166.96C2305.07 1168.31 2304.94 1169.79 2304.67 1171.41C2287.68 1170.6 2270.29 1170.19 2252.49 1170.19C2246.29 1170.19 2238.74 1170.19 2229.84 1170.19C2221.22 1170.46 2211.24 1170.73 2199.91 1171C2199.11 1168.58 2198.7 1166.01 2198.7 1163.32C2198.7 1160.89 2199.11 1158.19 2199.91 1155.23L2231.87 1150.78C2232.41 1143.23 2232.81 1135.27 2233.08 1126.92C2233.35 1118.29 2233.48 1109.12 2233.48 1099.41V1013.26C2233.48 995.468 2233.08 982.256 2232.27 973.627L2200.32 969.583C2199.78 968.234 2199.51 965.943 2199.51 962.707C2199.51 961.359 2199.51 960.01 2199.51 958.662C2199.51 957.314 2199.78 955.831 2200.32 954.213C2218.65 953.135 2241.84 950.304 2269.89 945.72C2272.31 948.416 2273.66 951.112 2273.93 953.809C2272.58 961.359 2271.91 983.199 2271.91 1019.33ZM2212.86 874.94C2212.32 873.592 2212.05 872.243 2212.05 870.895C2212.05 869.277 2212.05 867.794 2212.05 866.446C2212.05 859.166 2215.01 853.369 2220.95 849.055C2227.15 844.471 2234.7 842.179 2243.6 842.179C2251.95 842.179 2258.7 844.74 2263.82 849.864C2269.21 854.717 2271.91 861.458 2271.91 870.086C2271.91 877.097 2268.81 882.759 2262.61 887.073C2256.67 891.388 2248.99 893.545 2239.55 893.545C2233.08 893.545 2227.28 891.927 2222.16 888.691C2217.31 885.456 2214.21 880.872 2212.86 874.94Z" fill="white"/>
<path d="M2367.59 1116C2367.59 1130.02 2370.15 1139.99 2375.28 1145.93C2380.4 1151.59 2388.49 1154.42 2399.54 1154.42C2407.63 1154.42 2416.53 1151.99 2426.24 1147.14C2436.21 1142.02 2445.38 1134.74 2453.74 1125.3V1062.2C2425.97 1063.82 2404.67 1068.81 2389.84 1077.17C2375.01 1085.26 2367.59 1098.2 2367.59 1116ZM2453.74 1047.64V1027.02C2453.74 1004.1 2451.04 987.513 2445.65 977.267C2440.53 966.751 2431.9 961.494 2419.77 961.494C2407.36 961.494 2397.39 965.538 2389.84 973.627C2382.29 981.447 2377.16 994.929 2374.47 1014.07C2365.84 1015.96 2359.5 1016.9 2355.46 1016.9C2344.94 1016.9 2338.74 1013.13 2336.85 1005.58C2336.85 987.244 2344.81 972.683 2360.71 961.898C2376.62 951.112 2396.44 945.72 2420.17 945.72C2446.32 945.72 2464.79 951.112 2475.58 961.898C2486.64 972.414 2492.16 991.423 2492.16 1018.93V1132.98C2492.16 1139.72 2492.57 1145.52 2493.38 1150.37L2525.33 1154.42C2526.41 1158.46 2526.41 1163.59 2525.33 1169.79C2506.18 1170.6 2485.83 1172.48 2464.26 1175.45C2462.1 1173.29 2460.75 1170.6 2460.21 1167.36L2458.19 1139.45C2435.81 1165.07 2410.87 1177.88 2383.36 1177.88C2366.38 1177.88 2353.03 1173.02 2343.32 1163.32C2333.89 1153.61 2329.17 1140.53 2329.17 1124.08C2329.17 1099.28 2340.36 1080.54 2362.74 1067.87C2385.39 1055.19 2415.72 1048.45 2453.74 1047.64Z" fill="white"/>
<path d="M1587.28 705.476C1591.87 708.442 1595.37 713.565 1597.8 720.846C1560.32 755.898 1522.3 773.425 1483.74 773.425C1457.32 773.425 1434.26 768.706 1414.58 759.269C1394.9 749.562 1378.58 736.889 1365.64 721.25C1352.7 705.341 1342.99 687.41 1336.52 667.457C1330.32 647.234 1327.22 626.607 1327.22 605.575C1327.22 584.274 1330.86 563.512 1338.14 543.289C1345.42 522.797 1356.07 504.596 1370.09 488.688C1384.11 472.509 1401.37 459.567 1421.86 449.86C1442.62 440.153 1466.22 435.299 1492.64 435.299C1527.42 435.299 1559.78 443.388 1589.71 459.567V537.222C1584.86 538.031 1580.54 538.436 1576.77 538.436C1572.72 538.436 1569.35 538.031 1566.66 537.222L1553.71 469.678C1537.27 458.893 1515.29 453.5 1487.79 453.5C1470.8 453.5 1455.43 457.41 1441.68 465.229C1428.2 472.779 1416.6 483.16 1406.9 496.372C1397.46 509.315 1390.18 524.684 1385.06 542.48C1379.93 560.007 1377.37 578.747 1377.37 598.7C1377.37 620.001 1379.8 639.685 1384.65 657.75C1389.77 675.816 1396.92 691.455 1406.09 704.667C1415.26 717.88 1426.31 728.261 1439.25 735.81C1452.47 743.091 1467.16 746.731 1483.34 746.731C1502.75 746.731 1521.49 742.956 1539.56 735.406C1557.62 727.856 1573.53 717.88 1587.28 705.476Z" fill="#00FFA3"/>
<path d="M1628.1 657.75C1628.1 641.572 1630.39 626.472 1634.97 612.451C1639.83 598.16 1646.7 585.757 1655.6 575.241C1664.5 564.725 1675.15 556.501 1687.55 550.569C1700.22 544.368 1714.38 541.267 1730.02 541.267C1745.39 541.267 1759.41 544.368 1772.08 550.569C1784.76 556.501 1795.54 564.725 1804.44 575.241C1813.61 585.757 1820.62 598.16 1825.47 612.451C1830.32 626.472 1832.75 641.572 1832.75 657.75C1832.75 674.468 1830.19 689.837 1825.07 703.858C1820.21 717.88 1813.2 730.148 1804.03 740.664C1795.14 750.91 1784.35 758.999 1771.68 764.931C1759.01 770.594 1745.12 773.425 1730.02 773.425C1714.11 773.425 1699.82 770.594 1687.15 764.931C1674.74 759.269 1664.09 751.315 1655.19 741.068C1646.57 730.822 1639.83 718.688 1634.97 704.667C1630.39 690.376 1628.1 674.737 1628.1 657.75ZM1687.15 583.33C1675.55 599.778 1669.76 624.585 1669.76 657.75C1669.76 674.198 1671.24 688.624 1674.2 701.027C1677.44 713.431 1681.75 723.812 1687.15 732.17C1692.54 740.259 1698.88 746.326 1706.16 750.371C1713.44 754.415 1721.39 756.438 1730.02 756.438C1738.38 756.438 1746.33 754.415 1753.88 750.371C1761.43 746.326 1767.9 740.259 1773.3 732.17C1778.69 723.812 1783 713.431 1786.24 701.027C1789.47 688.624 1791.09 674.198 1791.09 657.75C1791.09 641.302 1789.47 626.877 1786.24 614.474C1783 601.801 1778.55 591.42 1772.89 583.33C1767.5 574.972 1761.03 568.77 1753.48 564.725C1746.2 560.411 1738.38 558.254 1730.02 558.254C1713.3 558.254 1699.01 566.613 1687.15 583.33Z" fill="#00FFA3"/>
<path d="M2062.8 707.903C2062.8 725.969 2063.21 738.642 2064.02 745.922L2095.97 749.966C2096.78 754.281 2096.78 759.404 2095.97 765.336C2076.29 766.145 2055.79 768.032 2034.49 770.998C2032.61 769.111 2031.26 766.549 2030.45 763.313L2028.43 737.428C2018.99 748.483 2007.26 757.381 1993.24 764.122C1979.22 770.594 1964.52 773.829 1949.15 773.829C1925.69 773.829 1906.28 764.122 1890.91 744.708C1875.54 725.025 1867.86 698.87 1867.86 666.244C1867.86 628.495 1877.83 598.295 1897.79 575.646C1918.01 552.727 1942.14 541.267 1970.18 541.267C1992.29 541.267 2010.36 546.525 2024.38 557.041V502.844C2024.38 485.047 2023.98 471.835 2023.17 463.207L1991.22 459.162C1990.14 455.118 1990.14 449.995 1991.22 443.793C2009.82 442.445 2033.01 439.614 2060.78 435.299C2063.21 437.996 2064.56 440.692 2064.83 443.388C2063.48 450.399 2062.8 472.24 2062.8 508.91V707.903ZM1966.95 563.108C1949.42 563.108 1935.4 572.41 1924.89 591.015C1914.37 609.35 1909.11 634.831 1909.11 667.457C1909.11 694.151 1913.96 714.509 1923.67 728.53C1933.65 742.551 1946.73 749.562 1962.9 749.562C1972.61 749.562 1983.26 746.596 1994.86 740.664C2006.45 734.462 2016.29 725.969 2024.38 715.183V585.757C2011.17 570.657 1992.02 563.108 1966.95 563.108Z" fill="#00FFA3"/>
<path d="M2289.3 651.279H2162.3C2159.87 720.037 2180.5 754.415 2224.18 754.415C2242.79 754.415 2261.8 746.191 2281.21 729.744C2285.26 732.17 2288.36 736.35 2290.51 742.282C2271.91 763.044 2248.32 773.425 2219.73 773.425C2153.94 773.425 2121.05 734.732 2121.05 657.346C2121.05 620.675 2130.75 592.228 2150.17 572.006C2169.58 551.513 2192.23 541.267 2218.12 541.267C2246.43 541.267 2266.79 551.109 2279.19 570.792C2291.59 590.476 2297.79 616.091 2297.79 647.639C2295.1 649.796 2292.27 651.009 2289.3 651.279ZM2217.31 557.445C2203.29 557.445 2191.29 564.725 2181.31 579.286C2171.6 593.846 2165.67 612.451 2163.51 635.101H2213.67C2233.62 635.101 2247.91 633.887 2256.54 631.461C2256.54 609.35 2253.17 591.554 2246.43 578.072C2239.69 564.321 2229.98 557.445 2217.31 557.445Z" fill="#00FFA3"/>
</svg>
