<svg width="464" height="301" viewBox="0 0 464 301" fill="none" xmlns="http://www.w3.org/2000/svg">
<path d="M98.0651 91.9401V81.6098L181.224 39.2553V55.7839L117.434 86.5167L117.951 85.4837V88.0662L117.434 87.0332L181.224 117.766V134.295L98.0651 91.9401Z" fill="#00FFA3"/>
<path d="M260.268 0L217.655 158.313H203.709L246.322 0H260.268Z" fill="#00FFA3"/>
<path d="M365.879 91.9401L282.72 134.295V117.766L346.51 87.0332L345.993 88.0662V85.4837L346.51 86.5167L282.72 55.7839V39.2553L365.879 81.6098V91.9401Z" fill="#00FFA3"/>
<path d="M44.1401 196.096C43.6321 194.451 42.9312 192.978 42.0373 191.678C41.1637 190.357 40.1072 189.229 38.8679 188.295C37.6489 187.36 36.2471 186.659 34.6624 186.192C33.0777 185.704 31.3508 185.461 29.4816 185.461C26.1294 185.461 23.1428 186.304 20.522 187.99C17.9012 189.676 15.839 192.155 14.3356 195.426C12.8525 198.677 12.1109 202.638 12.1109 207.311C12.1109 212.025 12.8525 216.017 14.3356 219.288C15.8187 222.559 17.8808 225.048 20.522 226.754C23.1632 228.44 26.231 229.284 29.7254 229.284C32.8948 229.284 35.6376 228.674 37.9537 227.455C40.2901 226.236 42.0881 224.509 43.3477 222.274C44.6073 220.019 45.2372 217.378 45.2372 214.351L47.7971 214.747H30.853V205.909H56.1777V213.406C56.1777 218.749 55.0399 223.371 52.7645 227.272C50.489 231.173 47.3602 234.18 43.3782 236.293C39.3961 238.385 34.8249 239.432 29.6645 239.432C23.9149 239.432 18.8662 238.142 14.5184 235.561C10.191 232.961 6.80828 229.273 4.37029 224.499C1.95261 219.704 0.743774 214.016 0.743774 207.433C0.743774 202.395 1.45486 197.894 2.87702 193.933C4.3195 189.971 6.33084 186.609 8.91105 183.845C11.4913 181.062 14.5184 178.949 17.9926 177.507C21.4667 176.044 25.2456 175.312 29.3293 175.312C32.7831 175.312 36.0033 175.82 38.9898 176.836C41.9763 177.832 44.6277 179.254 46.9438 181.103C49.2802 182.952 51.2001 185.146 52.7035 187.685C54.2069 190.225 55.1923 193.029 55.6596 196.096H44.1401Z" fill="white"/>
<path d="M67.1105 238.578V176.166H90.5153C95.31 176.166 99.3327 176.999 102.583 178.665C105.854 180.331 108.323 182.667 109.989 185.674C111.675 188.661 112.518 192.145 112.518 196.127C112.518 200.129 111.665 203.603 109.958 206.549C108.272 209.475 105.783 211.74 102.492 213.345C99.2006 214.93 95.1576 215.722 90.3629 215.722H73.6931V206.336H88.8391C91.6428 206.336 93.9386 205.95 95.7265 205.178C97.5143 204.386 98.8349 203.238 99.6882 201.734C100.562 200.211 100.999 198.341 100.999 196.127C100.999 193.912 100.562 192.023 99.6882 190.459C98.8146 188.874 97.4839 187.675 95.696 186.862C93.9081 186.03 91.6022 185.613 88.7782 185.613H78.4167V238.578H67.1105ZM99.353 210.298L114.804 238.578H102.187L87.0107 210.298H99.353Z" fill="white"/>
<path d="M134.232 176.166V238.578H122.925V176.166H134.232Z" fill="white"/>
<path d="M167.624 238.578H146.475V176.166H168.051C174.248 176.166 179.571 177.415 184.02 179.914C188.49 182.393 191.923 185.958 194.32 190.611C196.718 195.263 197.917 200.83 197.917 207.311C197.917 213.812 196.708 219.4 194.29 224.072C191.893 228.745 188.429 232.331 183.898 234.83C179.388 237.329 173.963 238.578 167.624 238.578ZM157.781 228.796H167.076C171.424 228.796 175.05 228.004 177.955 226.419C180.861 224.814 183.045 222.427 184.508 219.257C185.97 216.068 186.702 212.086 186.702 207.311C186.702 202.537 185.97 198.575 184.508 195.426C183.045 192.257 180.881 189.89 178.016 188.325C175.172 186.741 171.637 185.948 167.411 185.948H157.781V228.796Z" fill="white"/>
<path d="M283.368 197.224H271.971C271.645 195.355 271.046 193.699 270.173 192.257C269.299 190.794 268.212 189.554 266.912 188.539C265.611 187.523 264.128 186.761 262.462 186.253C260.817 185.725 259.039 185.461 257.129 185.461C253.736 185.461 250.73 186.314 248.109 188.021C245.488 189.707 243.436 192.185 241.953 195.456C240.47 198.707 239.728 202.679 239.728 207.372C239.728 212.147 240.47 216.169 241.953 219.44C243.456 222.691 245.508 225.149 248.109 226.815C250.73 228.461 253.726 229.284 257.099 229.284C258.968 229.284 260.715 229.04 262.34 228.552C263.986 228.044 265.459 227.303 266.759 226.328C268.08 225.352 269.187 224.154 270.081 222.731C270.995 221.309 271.625 219.684 271.971 217.855L283.368 217.916C282.942 220.883 282.017 223.666 280.595 226.267C279.193 228.867 277.354 231.163 275.079 233.154C272.804 235.125 270.142 236.669 267.095 237.786C264.047 238.883 260.664 239.432 256.946 239.432C251.461 239.432 246.565 238.162 242.257 235.622C237.95 233.083 234.558 229.416 232.079 224.621C229.6 219.826 228.361 214.077 228.361 207.372C228.361 200.647 229.61 194.898 232.109 190.123C234.608 185.329 238.011 181.661 242.318 179.122C246.626 176.582 251.502 175.312 256.946 175.312C260.421 175.312 263.651 175.8 266.637 176.775C269.624 177.75 272.285 179.183 274.622 181.072C276.958 182.941 278.878 185.237 280.382 187.96C281.905 190.662 282.901 193.75 283.368 197.224Z" fill="white"/>
<path d="M349.491 207.372C349.491 214.097 348.231 219.857 345.712 224.651C343.213 229.426 339.8 233.083 335.473 235.622C331.166 238.162 326.279 239.432 320.814 239.432C315.349 239.432 310.453 238.162 306.125 235.622C301.818 233.062 298.405 229.395 295.886 224.621C293.387 219.826 292.137 214.077 292.137 207.372C292.137 200.647 293.387 194.898 295.886 190.123C298.405 185.329 301.818 181.661 306.125 179.122C310.453 176.582 315.349 175.312 320.814 175.312C326.279 175.312 331.166 176.582 335.473 179.122C339.8 181.661 343.213 185.329 345.712 190.123C348.231 194.898 349.491 200.647 349.491 207.372ZM338.124 207.372C338.124 202.638 337.382 198.646 335.899 195.395C334.437 192.124 332.405 189.656 329.804 187.99C327.204 186.304 324.207 185.461 320.814 185.461C317.421 185.461 314.425 186.304 311.824 187.99C309.224 189.656 307.182 192.124 305.699 195.395C304.236 198.646 303.504 202.638 303.504 207.372C303.504 212.106 304.236 216.108 305.699 219.379C307.182 222.63 309.224 225.098 311.824 226.785C314.425 228.451 317.421 229.284 320.814 229.284C324.207 229.284 327.204 228.451 329.804 226.785C332.405 225.098 334.437 222.63 335.899 219.379C337.382 216.108 338.124 212.106 338.124 207.372Z" fill="white"/>
<path d="M381.33 238.578H360.18V176.166H381.756C387.953 176.166 393.276 177.415 397.725 179.914C402.195 182.393 405.628 185.958 408.026 190.611C410.423 195.263 411.622 200.83 411.622 207.311C411.622 213.812 410.413 219.4 407.995 224.072C405.598 228.745 402.134 232.331 397.603 234.83C393.093 237.329 387.669 238.578 381.33 238.578ZM371.486 228.796H380.781C385.129 228.796 388.756 228.004 391.661 226.419C394.566 224.814 396.75 222.427 398.213 219.257C399.676 216.068 400.407 212.086 400.407 207.311C400.407 202.537 399.676 198.575 398.213 195.426C396.75 192.257 394.586 189.89 391.722 188.325C388.877 186.741 385.342 185.948 381.116 185.948H371.486V228.796Z" fill="white"/>
<path d="M422.364 238.578V176.166H462.957V185.644H433.67V202.588H460.854V212.065H433.67V229.101H463.201V238.578H422.364Z" fill="white"/>
<path d="M135.903 256.432H147.304L159.346 285.811H159.859L171.901 256.432H183.302V300.159H174.335V271.698H173.972L162.656 299.945H156.549L145.233 271.591H144.87V300.159H135.903V256.432Z" fill="#00FFA3"/>
<path d="M190.919 300.159V256.432H220.384V264.054H200.164V274.473H218.868V282.096H200.164V292.536H220.469V300.159H190.919Z" fill="#00FFA3"/>
<path d="M243.235 300.159H227.734V256.432H243.363C247.761 256.432 251.548 257.307 254.722 259.058C257.896 260.794 260.337 263.292 262.045 266.552C263.768 269.812 264.629 273.712 264.629 278.252C264.629 282.807 263.768 286.722 262.045 289.996C260.337 293.269 257.882 295.782 254.679 297.533C251.491 299.283 247.676 300.159 243.235 300.159ZM236.979 292.237H242.851C245.584 292.237 247.882 291.753 249.747 290.786C251.626 289.803 253.035 288.287 253.975 286.238C254.928 284.174 255.405 281.512 255.405 278.252C255.405 275.021 254.928 272.381 253.975 270.331C253.035 268.282 251.633 266.773 249.768 265.805C247.904 264.837 245.605 264.353 242.872 264.353H236.979V292.237Z" fill="#00FFA3"/>
<path d="M280.722 256.432V300.159H271.477V256.432H280.722Z" fill="#00FFA3"/>
<path d="M295.865 300.159H285.958L301.054 256.432H312.968L328.041 300.159H318.135L307.181 266.424H306.84L295.865 300.159ZM295.246 282.971H318.647V290.188H295.246V282.971Z" fill="#00FFA3"/>
</svg>
